{
  "accessors": [
    {
      "bufferView": 1,
      "componentType": 5126,
      "count": 5654,
      "max": [
        28.961000442504883,
        15.0,
        71.99199676513672
      ],
      "min": [
        -17.856000900268555,
        -30.0,
        -1.149817530113722e-17
      ],
      "type": "VEC3"
    },
    {
      "bufferView": 1,
      "byteOffset": 67848,
      "componentType": 5126,
      "count": 5654,
      "max": [
        1.0,
        1.0,
        1.0
      ],
      "min": [
        -1.0,
        -1.0,
        -1.0
      ],
      "type": "VEC3"
    },
    {
      "bufferView": 2,
      "componentType": 5126,
      "count": 5654,
      "max": [
        0.9803921580314636,
        0.9803921580314636,
        0.9803921580314636,
        0.0
      ],
      "min": [
        0.8666666746139526,
        0.886274516582489,
        0.8941176533699036,
        0.0
      ],
      "type": "VEC4"
    },
    {
      "bufferView": 0,
      "componentType": 5125,
      "count": 27120,
      "type": "SCALAR"
    }
  ],
  "asset": {
    "extras": {
      "author": "e.lg (https://sketchfab.com/e.lg)",
      "license": "SKETCHFAB Standard (https://sketchfab.com/licenses)",
      "source": "https://sketchfab.com/3d-models/beret-moustache-character-3d-printable-fb2e17b9c8fd432c89be990bbfd69647",
      "title": "Beret & Moustache Character (3d printable)"
    },
    "generator": "Sketchfab-16.58.0",
    "version": "2.0"
  },
  "bufferViews": [
    {
      "buffer": 0,
      "byteLength": 108480,
      "name": "floatBufferViews",
      "target": 34963
    },
    {
      "buffer": 0,
      "byteLength": 135696,
      "byteOffset": 108480,
      "byteStride": 12,
      "name": "floatBufferViews",
      "target": 34962
    },
    {
      "buffer": 0,
      "byteLength": 90464,
      "byteOffset": 244176,
      "byteStride": 16,
      "name": "floatBufferViews",
      "target": 34962
    }
  ],
  "buffers": [
    {
      "byteLength": 334640,
      "uri": "scene.bin"
    }
  ],
  "materials": [
    {
      "name": "lambert2SG.001",
      "pbrMetallicRoughness": {
        "metallicFactor": 0.5,
        "roughnessFactor": 0.5
      }
    }
  ],
  "meshes": [
    {
      "name": "Object_0",
      "primitives": [
        {
          "attributes": {
            "COLOR_0": 2,
            "NORMAL": 1,
            "POSITION": 0
          },
          "indices": 3,
          "material": 0,
          "mode": 4
        }
      ]
    }
  ],
  "nodes": [
    {
      "children": [
        1
      ],
      "matrix": [
        1.0,
        0.0,
        0.0,
        0.0,
        0.0,
        2.220446049250313e-16,
        -1.0,
        0.0,
        0.0,
        1.0,
        2.220446049250313e-16,
        0.0,
        0.0,
        0.0,
        0.0,
        1.0
      ],
      "name": "Sketchfab_model"
    },
    {
      "children": [
        2
      ],
      "name": "root"
    },
    {
      "children": [
        3
      ],
      "matrix": [
        1.0,
        0.0,
        0.0,
        0.0,
        0.0,
        2.220446049250313e-16,
        1.0,
        0.0,
        0.0,
        -1.0,
        2.220446049250313e-16,
        0.0,
        0.0,
        0.0,
        0.0,
        1.0
      ],
      "name": "GLTF_SceneRootNode"
    },
    {
      "children": [
        4
      ],
      "matrix": [
        1.0,
        0.0,
        0.0,
        0.0,
        0.0,
        2.220446049250313e-16,
        -1.0,
        0.0,
        0.0,
        1.0,
        2.220446049250313e-16,
        0.0,
        0.0,
        0.0,
        0.0,
        1.0
      ],
      "name": "_1"
    },
    {
      "children": [
        5
      ],
      "name": "Mesh_Mesh_head_geo.001_lambert2SG.001_0"
    },
    {
      "mesh": 0,
      "name": "Object_5"
    }
  ],
  "scene": 0,
  "scenes": [
    {
      "name": "Sketchfab_Scene",
      "nodes": [
        0
      ]
    }
  ]
}
